<svg width="126" height="43" viewBox="0 0 126 43" fill="none" xmlns="http://www.w3.org/2000/svg">
<path d="M25.1913 40.942C25.1913 40.942 31.8188 9.28666 41.1171 0.506348C41.1171 0.506348 31.8847 0.869443 21.7621 3.44412C21.7621 3.44412 19.1572 28.3987 23.2129 40.4138L25.1913 40.942Z" fill="#BE202E"/>
<path d="M12.8264 36.4529C12.8264 36.4529 15.1345 8.32951 20.4102 3.84033L10.5183 7.43828C10.5183 7.43828 6.5286 22.7873 7.28698 33.4491L12.8264 36.4529Z" fill="#BE202E"/>
<path d="M0 12.5874C2.43999 19.6513 4.84701 26.6821 7.287 33.746C9.16645 34.8022 11.0789 35.7595 12.9913 36.6507C11.7054 31.0723 8.93564 18.2979 8.07834 8.52734C5.3416 9.78167 2.6708 11.135 0 12.6204V12.5874Z" fill="#EB2127"/>
<path d="M20.4102 3.84033C17.0799 4.83059 13.7826 6.05191 10.5183 7.43828C13.1561 17.0438 17.8383 31.9967 23.2128 40.4139C23.8723 40.612 24.5318 40.777 25.1912 40.9421C22.9161 33.4161 18.0361 14.9973 20.4102 3.84033Z" fill="#EB2127"/>
<path d="M41.1171 0.506348C34.7534 0.572365 28.2248 1.59563 21.7621 3.44412C23.9383 10.1779 31.1923 31.6005 38.6112 42.4934C39.5344 42.4934 40.4577 42.4274 41.3479 42.3283C39.6663 33.1519 36.5999 12.3235 41.0842 0.506348H41.1171Z" fill="#EB2127"/>
<path d="M52.3598 4.35205H58.5257V13.4294H64.0322V18.7438H58.5257V38.0539H52.3598V18.7438H47.3479V13.4294H52.3598V4.35205Z" fill="#FEFEFE"/>
<path d="M65.6478 13.4292H71.6819L76.6278 27.4249L81.9364 13.4292H85.6294L90.8391 27.2598L95.785 13.4292H101.852L92.8834 38.0537H88.9596L83.7169 24.025L78.3094 38.0537H74.4516L65.5819 13.4292H65.6478Z" fill="#FEFEFE"/>
<path d="M125.428 18.4135L120.284 21.2523C119.328 20.229 118.371 19.5358 117.415 19.1397C116.459 18.7436 115.371 18.5456 114.085 18.5456C111.777 18.5456 109.897 19.2387 108.48 20.6251C107.062 22.0115 106.336 23.7609 106.336 25.9065C106.336 28.0521 107.029 29.7025 108.381 31.0228C109.732 32.3432 111.546 33.0034 113.788 33.0034C116.558 33.0034 118.701 32.0461 120.251 30.1646L125.131 33.4985C122.493 36.9314 118.767 38.6478 113.953 38.6478C109.634 38.6478 106.237 37.3605 103.797 34.7858C101.357 32.2112 100.137 29.2074 100.137 25.7745C100.137 23.3978 100.731 21.1863 101.918 19.2057C103.105 17.1922 104.754 15.6078 106.897 14.4855C109.04 13.3632 111.414 12.769 114.052 12.769C116.492 12.769 118.668 13.2642 120.614 14.2214C122.559 15.1787 124.142 16.565 125.395 18.3805L125.428 18.4135Z" fill="#FEFEFE"/>
</svg>
